<?xml version="1.0" encoding="UTF-8"?>
<svg version="1.1" viewBox="0 0 126.92 205.37" xmlns="http://www.w3.org/2000/svg" xmlns:xlink="http://www.w3.org/1999/xlink">
 <defs>
  <linearGradient id="linearGradient992" x1="379.07" x2="246.03" y1="107.11" y2="319.62" gradientUnits="userSpaceOnUse">
   <stop style="stop-color:#00c2ff" offset="0"/>
   <stop style="stop-color:#fa00ff" offset="1"/>
  </linearGradient>
 </defs>
 <title>café</title>
 <g transform="translate(-246.62 -111.68)">
  <path d="m254.71 128.54-1.4884 6.9281-4.3957 3.3072-1.1525 5.055c12.078 16.121 99.25 25.151 124.86 1.8821l-0.62538-5.4672-4.3957-4.4096-2.016-7.9006c-1.8315 21.421-99.794 23.769-110.78 0.60495zm-7.09 15.07 1.2432 13.48c30.887 26.414 115.21 17.044 122.58-1.1561l0.82585-11.956c-33.458 20.097-74.123 15.247-124.65-0.36841zm3.39 15.74 21.569 142.78c18.459 20.34 62.925 16.861 78.024-0.73493l17.63-141.68c-35.02 9.9816-73.537 16.684-117.22-0.36746zm11.71-29.15 6.74 4.6737c0.57907 0.40154-0.19845 1.095-0.43449 1.2729l-0.40353 0.30413c-0.56277 0.42415-1.4169 0.5031-2.0008 0.10867l-6.9672-4.7062c-0.58392-0.39444 0.0336-0.97168 0.56432-1.4354l0.27371-0.23914c0.53073-0.46372 1.6489-0.38025 2.228 0.0213zm15.79-8.88-7.3306 12.938m7.6906-12.758 32.32 18.74m46.799-11.574a46.338 11.575 0 0 1-46.338 11.575 46.338 11.575 0 0 1-46.338-11.575 46.338 11.575 0 0 1 46.338-11.575 46.338 11.575 0 0 1 46.338 11.575zm7.6937 0.18394c0 8.9299-24.846 16.168-55.496 16.168s-55.496-7.2388-55.496-16.168c0-8.9299 24.847-16.168 55.496-16.168s55.496 7.2388 55.496 16.168z" style="fill:none;stroke-linecap:round;stroke-linejoin:round;stroke-width:2;stroke:url(#linearGradient992)"/>
 </g>
</svg>
