<?xml version="1.0" encoding="UTF-8" standalone="no"?>
<svg
   xmlns:dc="http://purl.org/dc/elements/1.1/"
   xmlns:cc="http://creativecommons.org/ns#"
   xmlns:rdf="http://www.w3.org/1999/02/22-rdf-syntax-ns#"
   xmlns:svg="http://www.w3.org/2000/svg"
   xmlns="http://www.w3.org/2000/svg"
   xmlns:xlink="http://www.w3.org/1999/xlink"
   xmlns:sodipodi="http://sodipodi.sourceforge.net/DTD/sodipodi-0.dtd"
   xmlns:inkscape="http://www.inkscape.org/namespaces/inkscape"
   id="svg2"
   sodipodi:docname="coffee_inkscape.svg"
   viewBox="0 0 126.92 205.37"
   version="1.1"
   inkscape:version="1.0.2-2 (e86c870879, 2021-01-15)">
  <defs
     id="defs16">
    <linearGradient
       inkscape:collect="always"
       id="linearGradient990">
      <stop
         style="stop-color:#00c2ff;stop-opacity:1"
         offset="0"
         id="stop986" />
      <stop
         style="stop-color:#fa00ff;stop-opacity:1"
         offset="1"
         id="stop988" />
    </linearGradient>
    <linearGradient
       inkscape:collect="always"
       xlink:href="#linearGradient990"
       id="linearGradient992"
       x1="379.06778"
       y1="107.11386"
       x2="246.02759"
       y2="319.62354"
       gradientUnits="userSpaceOnUse" />
  </defs>
  <title
     id="title4121">café</title>
  <sodipodi:namedview
     id="base"
     fit-margin-left="0"
     inkscape:zoom="2.0234374"
     borderopacity="1.0"
     inkscape:current-layer="layer1"
     inkscape:cx="223.28333"
     inkscape:cy="165.91053"
     inkscape:window-maximized="1"
     showgrid="false"
     fit-margin-right="0"
     showguides="true"
     bordercolor="#666666"
     inkscape:window-x="-8"
     inkscape:guide-bbox="true"
     inkscape:window-y="-8"
     fit-margin-bottom="0"
     inkscape:window-width="1920"
     inkscape:pageopacity="0.0"
     inkscape:pageshadow="2"
     pagecolor="#ffffff"
     inkscape:document-units="px"
     inkscape:window-height="1057"
     fit-margin-top="0"
     inkscape:document-rotation="0" />
  <g
     id="layer1"
     inkscape:label="Calque 1"
     inkscape:groupmode="layer"
     transform="translate(-246.62 -111.68)">
    <path
       id="path4093"
       style="stroke-linejoin:round;stroke:url(#linearGradient992);stroke-linecap:round;stroke-width:2;fill:none;stroke-opacity:1"
       d="m 254.71,128.54 -1.4884,6.9281 -4.3957,3.3072 -1.1525,5.055 c 12.078,16.121 99.25,25.151 124.86,1.8821 l -0.62538,-5.4672 -4.3957,-4.4096 -2.016,-7.9006 c -1.8315,21.421 -99.794,23.769 -110.78,0.60495 z m -7.09,15.07 1.2432,13.48 c 30.887,26.414 115.21,17.044 122.58,-1.1561 l 0.82585,-11.956 c -33.458,20.097 -74.123,15.247 -124.65,-0.36841 z m 3.39,15.74 21.569,142.78 c 18.459,20.34 62.925,16.861 78.024,-0.73493 l 17.63,-141.68 c -35.02,9.9816 -73.537,16.684 -117.22,-0.36746 z m 11.71,-29.15 6.74,4.6737 c 0.57907,0.40154 -0.19845,1.095 -0.43449,1.2729 l -0.40353,0.30413 c -0.56277,0.42415 -1.4169,0.5031 -2.0008,0.10867 l -6.9672,-4.7062 c -0.58392,-0.39444 0.0336,-0.97168 0.56432,-1.4354 l 0.27371,-0.23914 c 0.53073,-0.46372 1.6489,-0.38025 2.228,0.0213 z m 15.79,-8.88 -7.3306,12.938 m 7.6906,-12.758 32.32,18.74 m 46.79857,-11.57397 a 46.337946,11.575154 0 0 1 -46.33795,11.57515 46.337946,11.575154 0 0 1 -46.33795,-11.57515 46.337946,11.575154 0 0 1 46.33795,-11.57515 46.337946,11.575154 0 0 1 46.33795,11.57515 z m 7.69367,0.18394 c 0,8.92992 -24.8465,16.16828 -55.49586,16.16828 -30.64936,0 -55.49587,-7.23881 -55.49587,-16.16828 0,-8.92991 24.84651,-16.16827 55.49587,-16.16827 30.64936,0 55.49586,7.2388 55.49586,16.16827 z" />
  </g>
  <metadata
     id="metadata13">
    <rdf:RDF>
      <cc:Work>
        <dc:format>image/svg+xml</dc:format>
        <dc:type
           rdf:resource="http://purl.org/dc/dcmitype/StillImage" />
        <cc:license
           rdf:resource="http://creativecommons.org/licenses/publicdomain/" />
        <dc:publisher>
          <cc:Agent
             rdf:about="http://openclipart.org/">
            <dc:title>Openclipart</dc:title>
          </cc:Agent>
        </dc:publisher>
        <dc:title>café</dc:title>
        <dc:date>2011-04-09T19:02:31</dc:date>
        <dc:description />
        <dc:source>https://openclipart.org/detail/131791/coffee--cafe-by-lmproulx</dc:source>
        <dc:creator>
          <cc:Agent>
            <dc:title>lmproulx</dc:title>
          </cc:Agent>
        </dc:creator>
        <dc:subject>
          <rdf:Bag>
            <rdf:li>coffee</rdf:li>
            <rdf:li>coffee to go</rdf:li>
            <rdf:li>cup</rdf:li>
            <rdf:li>paper cup</rdf:li>
          </rdf:Bag>
        </dc:subject>
      </cc:Work>
      <cc:License
         rdf:about="http://creativecommons.org/licenses/publicdomain/">
        <cc:permits
           rdf:resource="http://creativecommons.org/ns#Reproduction" />
        <cc:permits
           rdf:resource="http://creativecommons.org/ns#Distribution" />
        <cc:permits
           rdf:resource="http://creativecommons.org/ns#DerivativeWorks" />
      </cc:License>
    </rdf:RDF>
  </metadata>
</svg>
