<?xml version="1.0" encoding="UTF-8"?>
<svg style="enable-background:new 0 0 512 512" version="1.1" viewBox="0 0 512 512" xml:space="preserve" xmlns="http://www.w3.org/2000/svg" xmlns:xlink="http://www.w3.org/1999/xlink"><defs><linearGradient id="linearGradient902"><stop style="stop-color:#00c2ff" offset="0"/><stop style="stop-color:#fa00ff" offset="1"/></linearGradient><linearGradient id="linearGradient904" x1="15.333" x2="362.89" y1="584.37" y2="-56.222" gradientUnits="userSpaceOnUse" xlink:href="#linearGradient902"/><linearGradient id="linearGradient1242" x1="77.092" x2="292.51" y1="510.84" y2="36.744" gradientUnits="userSpaceOnUse" xlink:href="#linearGradient902"/></defs>
<g style="fill:url(#linearGradient904)">
	
</g>
<g>
	
</g>
<g>
	
</g>
<g>
	
</g>
<g>
	
</g>
<g>
	<g>
		<path d="m151.56 278.11c-19.782 0-34.909 16.291-34.909 34.909 0 19.782 15.127 34.909 34.909 34.909s34.909-15.127 34.909-34.909-15.128-34.909-34.909-34.909zm0 46.546c-6.982 0-11.636-4.655-11.636-11.636s4.655-11.636 11.636-11.636c6.982 0 11.636 4.655 11.636 11.636s-4.655 11.636-11.636 11.636zm93.091-174.55c-19.782 0-34.909 15.127-34.909 34.909s15.127 34.909 34.909 34.909 34.909-15.127 34.909-34.909-15.128-34.909-34.909-34.909zm0 46.546c-6.982 0-11.636-4.655-11.636-11.636s4.655-11.636 11.636-11.636 11.636 4.655 11.636 11.636-4.655 11.636-11.636 11.636zm23.272 58.181a11.636 11.636 0 0 1-11.636 11.636 11.636 11.636 0 0 1-11.636-11.636 11.636 11.636 0 0 1 11.636-11.636 11.636 11.636 0 0 1 11.636 11.636zm-93.091-34.909a11.636 11.636 0 0 1-11.636 11.636 11.636 11.636 0 0 1-11.636-11.636 11.636 11.636 0 0 1 11.636-11.636 11.636 11.636 0 0 1 11.636 11.636zm-23.273-81.454a11.636 11.636 0 0 1-11.636 11.636 11.636 11.636 0 0 1-11.636-11.636 11.636 11.636 0 0 1 11.636-11.636 11.636 11.636 0 0 1 11.636 11.636zm286.26-8.146c-93.091-79.127-200.14-123.34-320-130.33h-2.327-13.964c-8.145 0-16.291 3.491-22.109 9.309s-9.309 13.964-9.309 22.109v26.764c0 5.818 4.655 11.636 11.636 11.636 102.4 3.491 210.62 40.727 287.42 96.582 2.327 2.327 4.655 4.655 4.655 8.145s-1.164 6.982-3.491 9.309l-44.218 46.546c-1.164-5.818-5.818-10.473-11.636-10.473-6.982 0-11.636 4.655-11.636 11.636v139.64c0 6.982-4.655 11.636-11.636 11.636-6.982 0-11.636-4.655-11.636-11.636v-5.818c0-13.964-8.145-26.764-22.109-32.582-12.8-5.818-27.927-2.327-38.4 8.145l-125.67 130.33v-367.71c0-6.982-4.655-11.636-11.636-11.636s-11.636 4.655-11.636 11.636v396.8c0 4.655 2.327 9.309 6.982 10.473 1.163 1.163 3.49 1.163 4.653 1.163 3.491 0 5.818-1.164 8.145-3.491l146.62-151.27c4.655-5.818 10.473-3.491 12.8-2.327 1.164 1.164 6.982 3.491 6.982 10.473v5.818c0 19.782 15.127 34.909 34.909 34.909s34.909-15.127 34.909-34.909v-107.06l60.509-64c6.982-6.982 10.473-17.455 9.309-26.764s-5.818-18.618-13.964-24.436c-76.8-58.182-185.02-95.418-288.58-102.4v-15.127c0-2.327 1.164-4.655 2.327-5.818s3.491-2.327 5.818-2.327h15.127c114.04 6.982 217.6 48.873 306.04 124.51 4.655 4.655 12.8 3.491 16.291-1.164 3.494-4.654 4.657-12.8-1.161-16.291z" style="fill-opacity:0;stroke-width:6.2;stroke:url(#linearGradient1242)"/>
	</g>
</g>















</svg>
