<?xml version="1.0" encoding="UTF-8"?>
<svg version="1.1" viewBox="0 0 50 50" xmlns="http://www.w3.org/2000/svg" xmlns:xlink="http://www.w3.org/1999/xlink">
 <defs>
  <linearGradient id="linearGradient861" x1="23.426" x2="23.426" y1="60.322" y2="-2.6354" gradientTransform="translate(-.02064 .023512)" gradientUnits="userSpaceOnUse">
   <stop style="stop-color:#00c2ff" offset="0"/>
   <stop style="stop-color:#fa00ff" offset="1"/>
  </linearGradient>
 </defs>
 <g>
  <path d="m16.479 43.602c-3.7649-1.6854-9.0441-7.1948-10.439-10.894-1.486-3.9415-1.322-12.142 0.31942-15.967 1.6827-3.9216 7.1162-9.2171 10.934-10.657 3.9415-1.486 12.142-1.322 15.967 0.31942 3.9216 1.6827 9.2171 7.1162 10.657 10.934 0.58373 1.5483 1.0613 5.0065 1.0613 7.6849s-0.4776 6.1366-1.0613 7.6849c-1.4395 3.8181-6.735 9.2516-10.657 10.934-4.0563 1.7405-12.851 1.7193-16.782-0.0405zm15.538-4.8287c4.803-2.422 8.9619-8.8029 8.9619-13.75 0-1.4169-1.0125-4.5841-2.25-7.0381-2.422-4.803-8.8029-8.9619-13.75-8.9619-4.9471 0-11.328 4.1589-13.75 8.9619-2.8297 5.6115-2.8297 8.4647 0 14.076 2.422 4.803 8.8029 8.9619 13.75 8.9619 1.4169 0 4.5841-1.0125 7.0381-2.25zm-9.2333-6.5-0.30479-4.75-4.75-0.30479c-6.9749-0.44755-6.9749-3.9429 0-4.3904l4.75-0.30479 0.30479-4.75c0.24923-3.8841 0.64942-4.75 2.1952-4.75 1.5458 0 1.946 0.86594 2.1952 4.75l0.30479 4.75 4.75 0.30479c3.8841 0.24923 4.75 0.64942 4.75 2.1952s-0.86594 1.946-4.75 2.1952l-4.75 0.30479-0.30479 4.75c-0.24923 3.8841-0.64942 4.75-2.1952 4.75-1.5458 0-1.946-0.86594-2.1952-4.75z" style="fill:url(#linearGradient861)"/>
 </g>
</svg>
