<svg id="soccer_ball" 
xmlns="http://www.w3.org/2000/svg" 
xmlns:xlink="http://www.w3.org/1999/xlink" 
viewBox="-15 -20 224 224" shape-rendering="geometricPrecision" 

text-rendering="geometricPrecision">

<style>
<![CDATA[#soccer_ball-soccer-ball_tr 
{
    animation: soccer_ball-soccer-ball_tr__tr 3000ms linear 1 normal forwards 2s

}

@keyframes soccer_ball-soccer-ball_tr__tr { 
    0% {
            transform: translate(97px,97px) rotate(0deg);

            animation-timing-function: cubic-bezier(0,0,0.58,1)
        } 
    100% 
        {
            transform: translate(97px,97px) 
            rotate(359.999994deg)
        }
    }]]>
</style>
<g id="soccer_ball-soccer-ball_tr" 
transform="translate(97,97) rotate(0)">
<g id="soccer_ball-soccer-ball" transform="translate(-97,-97)">
<circle id="soccer_ball-circle1" r="97" transform="translate(97 97)"/>
<path id="soccer_ball-path1" d="M94,9.2C73.700172,9.901416,54.268006,17.60362,39,31h27L94,16.6v-7.4Zm6,0v7.4L128,31h27C139.731994,17.60362,120.299828,9.901416,100,9.2ZM32.8,37c-9.179572,9.731587-16.019568,21.42798-20,34.2l16,27.6l23-3.6L72.8,59L64.4,37h-31.6Zm96.8,0l-8.4,22l21,36.2l23,3.6L181,71.4c-3.894187-12.824888-10.666429-24.590804-19.8-34.4h-31.6Zm-50,26L59.4,98.2L77.2,129h39.6l17.8-30.8L114.4,63h-34.8ZM10.8,79.6C9.623589,85.325822,9.020611,91.154612,9,97c.016412,14.444394,3.588153,28.662672,10.4,41.4l7.4-4.4-1.4-29L10.8,79.6Zm172.4.2L168.6,105l-1.4,29l7.4,4.4c6.811847-12.737328,10.383588-26.955606,10.4-41.4-.033815-5.778527-.636726-11.539673-1.8-17.2ZM77.2,137L61.8,156l15.4,26.6c6.487722,1.547766,13.130375,2.352937,19.8,2.4c6.669625-.047063,13.312278-.852234,19.8-2.4L132.2,156l-15.4-19h-39.6Zm-47.8,2.6l-7,4c10.750656,17.258898,27.146296,30.262336,46.4,36.8l-14-24.6-25.4-16.2Zm135.2,0l-25.4,16.2-14,24.4c19.223257-6.486551,35.614768-19.416062,46.4-36.6l-7-4Z" 
fill="#fff"/>
</g>
</g>
</svg>